<svg aria-labelledby="simpleicons-yarn-icon" role="img" viewBox="0 0 24 24" xmlns="http://www.w3.org/2000/svg"><title id="simpleicons-yarn-icon">Yarn icon</title><path d="m 22.470954,19.207595 c -1.236708,0.293718 -1.86279,0.564248 -3.393215,1.561343 -2.39612,1.545883 -5.008663,2.26472 -5.008663,2.26472 0,0 -0.216424,0.324635 -0.842507,0.471494 -1.082118,0.2628 -5.1555233,0.486953 -5.5265353,0.494683 -0.997095,0.0077 -1.607719,-0.255071 -1.777766,-0.664731 -0.517871,-1.236707 0.742024,-1.777765 0.742024,-1.777765 0,0 -0.278259,-0.170048 -0.440577,-0.324636 -0.146859,-0.146859 -0.301447,-0.440577 -0.347823,-0.332365 -0.193236,0.471494 -0.293718,1.623178 -0.811589,2.141048 -0.711107,0.718837 -2.056026,0.479225 -2.852156,0.06184 -0.873424,-0.463765 0.06184,-1.553613 0.06184,-1.553613 0,0 -0.4714948,0.278259 -0.8502364,-0.293718 C 1.0836519,20.73029 0.76674569,19.833678 0.85176939,18.728372 0.95998129,17.453017 2.3667357,16.23177 2.3667357,16.23177 c 0,0 -0.247342,-1.86279 0.564247,-3.771957 0.734295,-1.739118 2.713026,-3.1381434 2.713026,-3.1381434 0,0 -1.661825,-1.8318722 -1.043471,-3.493697 0.401929,-1.0821187 0.564247,-1.074389 0.695647,-1.1207653 0.463765,-0.1777772 0.912072,-0.3710128 1.244437,-0.734295 1.661824,-1.7932247 3.7796863,-1.4531307 3.7796863,-1.4531307 0,0 0.989366,-3.03766127 1.916896,-2.44249595 0.285988,0.18550595 1.314001,2.47341375 1.314001,2.47341375 0,0 1.097577,-0.6415415 1.221248,-0.4019296 0.66473,1.2908128 0.742024,3.7564969 0.448306,5.2560038 -0.494682,2.4734138 -1.73139,3.8028734 -2.226072,4.6376504 -0.115942,0.193236 1.329459,0.80386 2.241531,3.331379 0.842506,2.311097 0.09275,4.25118 0.224153,4.467604 0.02319,0.03865 0.03092,0.05411 0.03092,0.05411 0,0 0.966177,0.07729 2.906261,-1.120765 1.035742,-0.641542 2.26472,-1.360377 3.663745,-1.375837 1.352647,-0.02319 1.422212,1.569072 0.409659,1.808684 z"/></svg>